<?xml version="1.0" encoding="utf-8"?>
<!-- Generator: Adobe Illustrator 16.0.0, SVG Export Plug-In . SVG Version: 6.00 Build 0)  -->
<!DOCTYPE svg PUBLIC "-//W3C//DTD SVG 1.1//EN" "http://www.w3.org/Graphics/SVG/1.1/DTD/svg11.dtd">
<svg version="1.1" id="Layer_1" xmlns="http://www.w3.org/2000/svg" xmlns:xlink="http://www.w3.org/1999/xlink" x="0px" y="0px"
	 width="1131px" height="2500px" viewBox="0 0 1131 2500" enable-background="new 0 0 1131 2500" xml:space="preserve">
<g>
	<path fill="#D34A47" d="M493.147,1377.726l2.687-44.765l7.417-12.662c0,0-16.882,6.908-45.147,6.908
		c-28.266,0-44.893-6.78-44.893-6.78l8.314,13.813l2.94,43.486c0,4.662,15.375,8.44,34.341,8.44S493.147,1382.388,493.147,1377.726
		 M484.673,1168.683l5.639-22.287l31.227-32.857l-8.23-7.01l-33.059,35.001l-6.547,26.628c-4.927-0.165-9.857-0.247-14.787-0.246
		c-34.818,0-63.042,3.967-63.042,8.861c0,4.895,28.225,8.862,63.042,8.862c34.816,0,63.041-3.967,63.041-8.862
		C521.956,1173.17,506.648,1170.068,484.673,1168.683"/>
	<path fill="#FFFFFF" d="M481.394,1181.166c0,0-1.221,0.274-4.813,0.29c-3.593,0.015-6.145-0.023-7.161-0.949
		c-0.272-0.248-0.422-0.742-0.42-1.077c0.003-0.636,0.455-1.01,1.029-1.246l0.544,0.854c-0.236,0.081-0.372,0.178-0.372,0.281
		c-0.002,0.483,3.674,0.813,6.486,0.778c2.811-0.034,6.209-0.266,6.213-0.743c0-0.144-0.258-0.279-0.705-0.386l0.542-0.848
		c0.73,0.227,1.366,0.663,1.363,1.42C484.092,1180.826,482.455,1181.021,481.394,1181.166"/>
	<path fill="#D34A47" d="M521.477,1113.604c0.785-0.907-0.405-3.227-2.66-5.181c-2.255-1.953-4.722-2.801-5.508-1.895
		c-0.785,0.907,0.407,3.227,2.662,5.179C518.225,1113.662,520.691,1114.511,521.477,1113.604 M491.646,1268.386
		c-0.74-7.122,15.574-17.434,11.388-17.764c-9.013,0.515-13.5,10.563-18.034,21.086c-1.662,3.857-7.348,20.302-11.077,18.276
		c-3.729-2.023,4.833-15.546,7.233-23.576c-2.769,2.029-12.924,9.92-15.541,2.531c-4.208,3.573-13.199,5.509-12.185-3.878
		c-2.239,3.965-7.262,9.501-13.293,7.199c-7.919-3.02,4.589-28.244,7.699-26.973c3.111,1.273-0.628,7.019-1.607,9.251
		c-2.153,4.91-4.641,11.083-2.979,12.348c2.847,2.165,10.593-8.191,10.766-8.418c1.448-1.914,5.577-14.438,8.904-13
		c3.326,1.438-8.299,17.973-3.952,21.254c0.876,0.662,4.463-0.408,6.646-2.769c1.411-1.526,0.926-4.91,5.631-16.133
		c4.706-11.222,8.9-25.198,12.128-24.133c3.227,1.064,0.567,8.238-0.591,10.912c-5.433,12.55-14.829,33.285-10.398,31.715
		c4.431-1.57,6.739-1.662,11.078-6.738c4.338-5.078,4.139-13.44,7.031-13.263c2.893,0.178,2.407,2.859,1.705,4.901
		c2.847-3.257,13.492-10.117,16.063-3.323c3.043,8.044-15.232,19.662-10.676,19.069c4.443-0.578,11.641-5.137,14.714-9.281
		l8.458-76.046c0,0-8.511,7.043-62.663,7.043c-54.152,0-61.784-6.898-61.784-6.898l7.202,69.413
		c3.822-10.863,12.9-32.838,27.207-32.101c6.509,0.335,15.197,12.868,7.754,13.292c-3.15,0.179-3.47-6.255-7.201-7.201
		c-2.691-0.682-6.439,1.507-8.861,3.877c-4.831,4.728-15.22,23.379-13.847,32.678c1.749,11.854,16.359-4.12,18.831-8.863
		c1.741-3.34,2.917-13.238,6.724-12.2c3.809,1.039-0.331,11.253-3.091,20.286c-3.101,10.141-4.731,20.838-8.617,19.607
		c-3.887-1.23,2.444-14.321,2.215-16.615c-3.654,3.37-10.383,11.903-18.994,7.68l4.472,43.106c0,0,11.887,9.392,47.695,9.392
		c35.809,0,48.135-9.246,48.135-9.246l5.553-49.926C506.947,1269.384,492.567,1277.241,491.646,1268.386"/>
</g>
<rect x="339.699" y="1096.166" opacity="0" fill="none" stroke="#30B293" stroke-miterlimit="10" width="450" height="300"/>
<text transform="matrix(1 0 0 1 551 1224.5)"><tspan x="0" y="0" fill="#D34A47" font-family="'WalkwayBold'" font-size="44">BUILD</tspan><tspan x="0" y="52.8" fill="#D34A47" font-family="'WalkwayUltraBold'" font-size="44">SYSTEM</tspan></text>
</svg>
