<?xml version="1.0" encoding="utf-8"?>
<!-- Generator: Adobe Illustrator 16.0.0, SVG Export Plug-In . SVG Version: 6.00 Build 0)  -->
<!DOCTYPE svg PUBLIC "-//W3C//DTD SVG 1.1//EN" "http://www.w3.org/Graphics/SVG/1.1/DTD/svg11.dtd">
<svg version="1.1" id="Layer_1" xmlns="http://www.w3.org/2000/svg" xmlns:xlink="http://www.w3.org/1999/xlink" x="0px" y="0px"
	 width="2500px" height="1309px" viewBox="0 0 2500 1309" enable-background="new 0 0 2500 1309" xml:space="preserve">
<g>
	<ellipse fill="#8993BE" cx="1250" cy="650.684" rx="225" ry="117.123"/>
	<g>
		<path fill="#232531" d="M1265.845,687.67h30.822l10.787-63.185c3.081-15.413-6.164-27.74-30.823-29.282h-27.738l6.166-32.361
			h-29.283l-24.657,124.828h29.282l13.869-69.349h23.116c10.786,0,10.786,4.623,9.247,12.329L1265.845,687.67z"/>
		<path fill="#232531" d="M1169.861,595.203h-57.019l-24.658,124.829h29.282l6.165-32.362h27.736
			c26.2,1.542,55.48-20.033,55.48-57.021C1206.848,609.072,1194.518,596.745,1169.861,595.203z M1148.288,664.554h-18.492h-0.001
			l7.706-46.233h20.034c10.788,0,18.492,4.623,18.492,13.869C1174.486,658.39,1162.157,663.014,1148.288,664.554z"/>
		<path fill="#232531" d="M1376.369,595.203h-57.021l-24.656,124.829h29.279l6.165-32.362h27.74
			c26.199,1.542,55.479-20.033,55.479-57.021C1413.356,609.072,1401.028,596.745,1376.369,595.203z M1354.795,664.554h-18.493
			h-0.002l7.706-46.233h20.035c10.788,0,18.492,4.623,18.492,13.869C1380.993,658.39,1368.666,663.014,1354.795,664.554z"/>
	</g>
</g>
<rect x="1024.699" y="505.095" opacity="0" fill="none" stroke="#30B293" stroke-miterlimit="10" width="450" height="300"/>
</svg>
