<?xml version="1.0" encoding="utf-8"?>
<!-- Generator: Adobe Illustrator 16.0.0, SVG Export Plug-In . SVG Version: 6.00 Build 0)  -->
<!DOCTYPE svg PUBLIC "-//W3C//DTD SVG 1.1//EN" "http://www.w3.org/Graphics/SVG/1.1/DTD/svg11.dtd">
<svg version="1.1" id="Layer_1" xmlns="http://www.w3.org/2000/svg" xmlns:xlink="http://www.w3.org/1999/xlink" x="0px" y="0px"
	 width="2500px" height="2500px" viewBox="0 0 2500 2500" enable-background="new 0 0 2500 2500" xml:space="preserve">
<g>
	<path fill="#FFFFFF" d="M576.367,1266.095l123.737,70v140l-123.737,70l-123.736-70v-140L576.367,1266.095z"/>
	<path fill="#8ED6FB" d="M678.007,1471.265l-97.557,55.184v-42.979l60.783-33.438L678.007,1471.265z M684.68,1465.221v-115.406
		l-35.7,20.604v74.177L684.68,1465.221L684.68,1465.221z M474.33,1471.265l97.557,55.184v-42.979l-60.783-33.438L474.33,1471.265
		L474.33,1471.265z M467.657,1465.221v-115.406l35.7,20.604v74.177L467.657,1465.221L467.657,1465.221z M471.833,1342.349
		l100.053-56.607v41.557l-64.096,35.258l-0.491,0.278L471.833,1342.349z M680.503,1342.349l-100.053-56.607v41.557l64.097,35.258
		l0.49,0.278L680.503,1342.349z"/>
	<path fill="#1C78C0" d="M571.887,1473.691l-59.966-32.971v-65.332l59.966,34.626V1473.691 M580.45,1473.691l59.966-32.971v-65.332
		l-59.966,34.626V1473.691 M515.98,1367.828l60.2-33.11l60.2,33.11l-60.2,34.767L515.98,1367.828"/>
</g>
<rect x="351.367" y="1256.095" opacity="0" fill="none" stroke="#30B293" stroke-miterlimit="10" width="450" height="300"/>
</svg>
